<svg id="social-icons" xmlns="http://www.w3.org/2000/svg" xmlns:xlink="http://www.w3.org/1999/xlink">
  <defs>
    <g id="gplus">
      <path d="M14 14.8c-5.92-3.9 7.1-3.6.6-12.3l1.85.042 1.82-1.61-6.78-.168c-12.4-.207-9.71 13-1.73 11.8-.586 1.23-.135 2.37.532 3.39-4.45.268-8.88 1.37-8.93 5.87-.032 2.5 3.13 4.82 8.01 4.46 7.24-.082 11.6-6.07 4.73-11.4zm-3.7-3.4c-4.3.3-6.33-8.8-1.6-9.22 4.2-.36 6.8 8.92 1.6 9.22zm-.2 13c-9.04-.019-7.11-8.42 1.22-7.47 2.6 1.8 3.62 2.38 3.62 4.08 0 2.1-1.53 3.4-4.83 3.39zM21.4 8.75v3h-3v2h3v3h2v-3h3v-2h-3v-3h-2z"></path>
    </g>
    <g id="twitter">
      <path d="M24.253 8.756c.436 8.324-5.956 15.426-14.283 15.864-3.122.162-6.219-.646-8.861-2.32 2.703.179 5.376-.648 7.508-2.321-2.072-.247-3.818-1.661-4.489-3.638.801.128 1.62.076 2.399-.155-2.482-.466-4.312-2.586-4.412-5.109.688.275 1.426.407 2.168.386-2.135-1.65-2.729-4.621-1.394-6.965 2.686 3.318 6.651 5.342 10.914 5.573-.842-2.739.694-5.64 3.434-6.482 2.018-.623 4.212.044 5.546 1.683 1.186-.213 2.318-.662 3.329-1.317-.385 1.256-1.247 2.312-2.399 2.942 1.048-.106 2.069-.394 3.019-.851-.457 1.183-1.342 2.15-2.479 2.71z"></path>
    </g>
    <g id="github">
      <path d="M13.971 1.571c-7.031 0-12.734 5.702-12.734 12.74 0 5.621 3.636 10.392 8.717 12.083.637.129.869-.277.869-.615l-.018-2.164c-3.542.77-4.29-1.707-4.29-1.707-.579-1.473-1.414-1.863-1.414-1.863-1.155-.791.088-.775.088-.775 1.277.104 1.96 1.316 1.96 1.312 1.136 1.936 2.991 1.393 3.713 1.059.116-.822.445-1.383.81-1.703-2.829-.32-5.802-1.414-5.802-6.293 0-1.391.496-2.527 1.312-3.418-.132-.322-.57-1.617.123-3.371 0 0 1.069-.342 3.508 1.306 1.016-.282 2.105-.424 3.188-.429 1.081 0 2.166.155 3.197.438 2.431-1.648 3.498-1.306 3.498-1.306.695 1.754.258 3.043.129 3.371.816.902 1.315 2.037 1.315 3.43 0 4.892-2.978 5.968-5.814 6.285.458.387.876 1.16.876 2.357 0 1.703-.016 3.076-.016 3.482 0 .334.232.748.877.611 5.056-1.688 8.701-6.457 8.701-12.082-.056-7.057-5.752-12.756-12.793-12.748z"></path>
    </g>
  </defs>
</svg>
