<svg id="logo" xmlns="http://www.w3.org/2000/svg" height="100%" viewBox="0 0 687.00395 318.78088" width="100%" version="1.1">
 <path id="path3215" d="m660,85c-60.6-8.28-40.1-20.5-79.6,20.9l0.59-22.3h-45.4l-1.44,31.2c-11.2-0.557-22.4-1.01-33.6-0.625-1.4,0.0488-29,20-33.1,22.7,8.66-12.4,41.1-41.6,51.1-53l-51.5-3.53c-2.69,3.55-9.32,7.16-11.9,10.8l5.9-89.7c-20.1-0.552-24.8-0.323-42.1-0.312l-5,82.9h-24.6c0.102,1.49-0.61,9.38-0.652,10.9-2.46-1.46-4.27-7.29-6.72-8.2-19.1-7.42-65.8-0.53-66.8-0.34-2.3,0.429-6.21-1.6-8.41,4.5l-45,3c0.281,0.373,0.599,2.74,0.906,3.09-15.2,0.254-26.4-1.74-41.4,0.06-20.8,17.7-33.4,87.8-36.7,115l-39-42.5c21.6-40.8,76-126,58.1-168-20.1-2.62-40.5-0.662-60.8-1-64.7,35.4-107,90.2-143,134l32.6,21.9c8.78-13.8,10.1-19.3,20.2-32.2l23.5,160,51.6-1.06-15.1-88.2,58.4,75.6,18.1-0.938c1.75,1.98,6.39,8.67,8.52,10.3,15.9-0.886,13.3-0.12,29.1-1.41-30.5,12.2-52.1,20.4-82.1,31.8l34.8,4.12,35.3-15.4c23.4-9.65,46.8-19.2,70.5-28.3,1.75,5.6,6.31,7.91,10.6,10.7,20.9,0.335,41.7,2.01,62.6,1,16.8-4.39,33-27.7,40.1-40.5l-4.5,39,46.2,0.656,7.38-59.5c21.7-3.82,38.5-5.4,60.6-0.219l-16.2,59.6,42.6,0.562,12.6-44c28.4-0.309,50.7,64.2,56.7,77.9,53.4,3.99,60.8,7.31,57-22.4-8.1-86.8-4.84-132-0.723-209zm-507-57.2c-6.5,39-28.5,88.2-48.8,116l-5.19-51.1-20.4,0.156c23.5-23,50.1-47.3,74.4-65.2zm205,87c3.24,3.82,5.75,8.29,7.22,14,10.1,30.7-1.66,37.3,42.8,36.3l-4.91,47.9-45.8-2c-7.56,13.2-6.91,21.7-21.4,26.6-9.48-14.2,0.926-89.2,22.1-123zm257,15.9c0.514,33.8-0.468,67.5-2.34,101-0.357,6.29-0.817,12.6-1.31,18.8-17-17.2-37.3-32.7-60.5-40.1l6.25-35.4,0.188-1.16c16.6-1.24,36.1-7.61,38.4-8.12,8.39-10.8,13.8-23.8,19.3-35.3zm-351-2.22c7.03,36.7-10.8,79.2-31.2,105,0.733-36.9,7.89-87.2,31.2-105zm249,14c2.25,22.1,0.189,43.5-2.62,63.9-22.7,0.361-41.5,1.27-61.3,2.97,0.325-2.48,0.638-4.96,0.969-7.44,16.6-22.3,38.1-42.9,63-59.4zm-230,95c-0.891,6.19-1.7,13.2-1.53,19.8-5.31,1.94-10.6,3.88-15.9,5.84,6.11-8.44,12.8-17.6,17.5-25.6z"/>
</svg>
