<svg id="portrait" xmlns="http://www.w3.org/2000/svg" height="100%" width="100%" version="1.1" viewBox="0 0 713.875 1221.231">
  <g>
      <path d="m287,1180c3.25,6.9,11.5,24.6,18,26,2.37,0.274,2.69,0.752,2.69,3.81,0.245,5.27,3.46,9.11,5,14,0.413,1.38,1.19,3.06,1.72,3.72,0.748,0.937,1.38,0.929,2.88,0,2.31-1.44,2.37-2.09,0.406-3.72-0.825-0.685-1.5-2.51-1.5-4.06,0-1.64-0.736-3.25-1.75-3.84-0.962-0.561-1.26-1.05-0.688-1.06,7.5,4.09-0.774-6.28,3.59-9.34,4.65-1.26,11.9,9.25,14.4,5.94,1.15-1.57,1.51-1.56,5.34,0.438,6.48,3.38,10.5,0.187,5.97-4.72-3.06-3.29-6.2-4.55-6.88-2.75-11.7-4.96-34.2-17.8-45-26.2-2.2-2.64-5.88-1.86-4.24,1.78zm69.7-79.2c-2.52-0.215-0.768,7.31-0.812,15.8-0.0978,10.5-0.0713,10.8,2.06,10.5,1.45-0.15,2.42,0.472,2.84,1.81,0.36,1.14,1.34,1.89,2.22,1.72,1.3-0.255,1.5-1.68,1.25-8.31-0.26-6.78-2.59-1.56-2.91-4.75-3.48-3.95-3.51-16.6-4.66-16.7zm-9.8-119c-5.82,0.0477-12,0.3-18.9,0.812h-0.0312c-3.02,0.247-4.1,0.442-4.5,1.34-0.465,0.079,2.94,1.54,2.81,1.62-2.38,1.47-5.1,4.64-1.78,7.38,21.9-4.86,78.3,2.48,58.5-8.88-12.3-1.48-23.3-2.39-36.1-2.28zm-33.3-19.1c-2.4-0.0107-4.01,0.0336-4.09,0.156-0.308,0.498,26,3.41,27.4,3.41,3.06,0,2.06-2.06-0.688-2.78-0.823-0.215-15.2-0.744-22.6-0.781zm54.2-0.531-0.0312,0.0312c-0.546,0.028-1.16,0.0885-1.81,0.188-5.19,0.78-16.3,2.06-13.4,3.12,3.4,1.26,49.2,0.698,50.5-0.625,1.59-1.59-0.684-2.92-2.47-1.44-0.955,0.792-15.9,1.07-17.8,0.312-1.53-0.582-4.68-0.817-7-0.469-2.65,0.397-4.51,0.22-4.94-0.469-0.318-0.515-1.39-0.741-3.03-0.656zm23-49.6-0.0312,0.0312,0.0625,0.125c0.687,1.37-4.15,0.752-7.06,2-2.57,1.1-6.3,1.99-8.31,2-6.22,0.715-11.2,4.69-17.2,5.56-6.51,0.863-16.7-1.25-18-3.75-0.546-1.02-2.02-1.81-3.25-1.81s-3.24-0.706-4.47-1.56c-2.95-2.07-15.2-1.71-15.2,0.438,0,1.12-1.38,3.26-5.69,2.75-5.36-0.63-5.19-2.59-5.5,0.125l-0.312,2.75-11,0.281c-8.89,0.232-11.4,0.634-13,2.09-3.25,2.9-23.3,6.35-33.3,5.75l-8.41-0.594-1.41,3.38c-3.07,7.36-0.567,9.91,4.75,4.81l2.78-2.69,3.78,1.78c2.07,0.998,4.59,2.25,5.59,2.75,1.14,0.57,4.64,0.442,9.31-0.312,4.66-0.753,12.3-0.977,20.2-0.625,10,0.447,13.1,0.247,14.6-0.875,2.24-1.64,5.53-1.87,5.53-0.406,0,1.29,5.6,1.32,8,0.0312,1.29-0.689,2.84-0.574,5.19,0.406,1.85,0.772,5.38,1.43,7.84,1.44,5.65,0.0151,17.6,1.88,21.2,3.28,1.46,0.584,3.18,2.37,3.84,3.97,1.3,3.14,3.65,3.84,4.59,1.38,0.322-0.84,2.56-2.68,4.97-4.09,3.55-2.08,5.5-2.52,10.1-2.31,3.16,0.138,6.42,0.006,7.25-0.312,10.4-4.02,25.1-6.08,37.5-5.22,6.05,0.421,12.9,0.86,15.2,1,2.28,0.14,4.98,0.521,6,0.844,4.87,1.54,19.7,3.59,21.9,3.03,2.06-0.516,3.22,0.118,6.5,3.56,4.94,5.19,6.91,4.82,6.91-1.28,0-3.49-0.798-5.48-3.97-9.91-3.8-5.3-4.14-5.54-8.25-5.41-2.36,0.0739-4.75,0.46-5.34,0.844-2.98,1.91-15.5,0.325-21.4-2.72-1.38-0.706-5.8-1.82-9.84-2.44-4.04-0.621-8.68-1.85-10.4-2.72-2.37-1.23-3.59-1.32-5.47-0.469-3.33,1.52-4.09,1.37-4.78-0.812-0.524-1.65-1.47-1.84-7.19-1.56-6.2,0.305-6.47,0.228-4.97-1.44,0.875-0.966,1.59-2.04,1.59-2.41,0-0.476-0.514-0.712-1.44-0.688zm-58.8-38.8c-0.27,0.699-0.468,0.718-1.22,0.656-2.38,0.455-3.03,1.41-2.56,3.75,0.111,0.55,0.178,3.02,0.156,5.5-0.0362,4.05,2.4,16.9,6.19,20.2,4.88,4.31,4.24,4.09,6.88,2.69,2.86-1.67,5.63,1.27,8.19-0.0938,1.51-0.846,1.23-1.32-2.28-3.88-2.21-1.6-7-16.8-8.19-19.2-2.79-5.5-5.92-9.56-7-9.69-0.0551-0.0154-0.115,0.00007-0.156,0.0001zm-32.2-75c-5.44,10.8,4.88,11,13.6,10.3,5.02-0.518,14.9,4.81,22.9,8.92,19.5,10,40.1,4.88,56.4-2.36,4.9-1.21,8.61,1.62,13,2.82,2.28,0.624,11.2,2.26,13.5-0.875,19-25.8-13.3-21.6-22.9-15.6-29,24.4-43.8,19-61.8,8.98-4.63-2.85-8.7-8.78-11.2-10.2-9.25-6.38-21.1-8.25-23.4-1.96zm-0.6-56c-1.73,0-13.6,15.1-22.2,28-9.53,14.3-18.9,38.5-14.9,38.5,0.429,0,3.03-3.4,5.75-7.56s5.4-7.96,5.97-8.44c0.666-0.553,2.04,1.6,3.88,6.03,2.84,6.89,5.6,9.92,13.1,14.2,2.58,1.46,7.62,1.33,9.12-0.0312,0.647-0.586-7.02-9.17-8.66-9.69-13.6-9.94-3.93-33.2,3.88-45.6,5.76-7.5,7.85-15.3,4.09-15.4zm120-17.5c-1.59,0-2.8,0.675-3.12,1.75-0.298,0.962-0.888,2.42-1.31,3.25-0.428,0.825,2.73,9.86,5.12,17.2,4.16,12.8,4.23,23.7,2,32.7,4.54,2.95,8.7-4,11.2-3.47,2.25,0.863,4.96,10.7,4.97,18.1,0.005,5.88-0.524,8.05-3.28,13.8-1.84,3.78-5.45,8.97-8.22,11.7-5.12,5.12-5.88,6.52-3.75,7.38,0.688,0.277,1.92,0.27,2.75,0,0.825-0.27,2.74-0.735,4.22-1.03,4.07-0.821,7.63-5.47,11.8-15.3,0.577-1.38,1.47-3.18,2-4,0.53-0.825,1.47-4.76,2.09-8.75,0.657-4.22,1.61-7.23,2.28-7.22,0.638,0.0142,2.74,2.38,4.66,5.25,4,6,4.81,6.74,6.66,6.03,2.14-0.822,1.66-2.35-4.16-13.2-3.02-5.64-5.5-10.4-5.5-10.7,0-1.63-14.7-29.4-16.8-31.8-2.66-3.03-6.68-10.5-9.59-17.8-1.19-2.98-2.01-3.75-4.06-3.75zm-80.8-29.6c-0.547,0.0492-1.2,0.221-1.94,0.5-2.94,1.12-4.18,2.64-3.28,4.09,0.923,1.49,2.71,1.18,5.5-0.969,2.4-1.85,2.15-3.54,0.219-3.62-0.161-0.008-0.318-0.0164-0.5,0zm329-7.38c0.578,0.141,0.829,1.53,0.438,4.5-0.368,2.67-1.14,6.61-1.72,8.81-0.582,2.2-9.18,9.9-9.31,17.1-0.24,12.6-0.358,27.3-3.78,34.5-3.48,7.32-9.88,15-11,13.2-0.315-0.51,0.37-2.64,1.5-4.75,1.44-2.69,2.63-22.5,3.97-33.4,1.97-16.1,11.1-21.5,13.4-26.6,0.738-1.65,2.17-5.2,3.19-7.91,1.22-3.52,2.56-5.58,3.34-5.47zm-646-60.9c-0.317,0.005-0.593,0.124-0.781,0.312-0.974,0.981-0.767,16.6,0.25,19,0.805,1.9,0.876,1.87,1.59-0.5,1.19-3.89,1.09-17.8-0.125-18.5-0.293-0.181-0.62-0.287-0.938-0.281zm269-23.4,0,0.0312c-1.9,0.11-5.12,2.44-9.53,6.88-4.04,4.06-6.65,7.57-7.03,9.5-0.336,1.68-1.22,3.28-1.97,3.56-0.747,0.287-1.41,1.18-1.41,1.97,0,1.52,0.265,1.4,6.5-2.69,1.65-1.08,4.38-2.62,6.06-3.41,3.59-1.68,9.69-10.9,9.25-14-0.163-1.14-0.667-1.75-1.5-1.84-0.115-0.0125-0.248-0.007-0.375,0zm145-9.57c-3.06,2.18-3.08,5.35-0.0625,7.34,8.73,10.5,14.7,18,24.8,27.7,6.67,6.42,9.5,8.1,9.5,5.62,0-0.614,1.84,0.526,4.09,2.56,2.53,2.29,4.46,3.36,5.03,2.78,1.8-1.8-1.06-6.16-7.09-10.9-3.32-2.58-6.03-5.49-6.03-6.41,0-0.919-2.69-4.5-6-8.03-4.42-4.72-5.96-7.06-5.69-8.72,0.277-1.65-0.0888-2.25-1.44-2.25-1.23,0-2.12-1.08-2.69-3.25-0.673-2.6-1.92-3.79-6.22-5.94-3.86-2.16-4.79-2.96-8.18-0.52zm-295-7.97c-0.148,0-0.255,0.036-0.344,0.125-0.329,0.33-0.357,1.31-0.0312,2.16,0.623,1.62,9.69,2.17,9.69,0.656,0-1.1-8.24-2.94-9.28-2.94zm560-15.5c4.91,0.27-22.9,60.9-23.7,71.7,0,4.08-14.5,27.5-14.9,23.3,14.6-85.8,38.6-95,38.6-95zm-681-25.4,0,0.0312c-1.06-0.00061-2.49,1.21-2.5,2.5-0.009,0.904,0.876,5.67,1.97,10.6,3.3,15,4.38,30.3,3.19,44.8-0.578,7.04-0.784,13.5-0.469,14.3,9.98-1.88,9.4,0.677,8.78-10.4-3.88-16.7,5.41-23.3,7.47-6.12,0.0944,2.08,1.89,3.39,3.09,2.19,1.02-1.02,0.0986-7.11-2.91-18.8-1.59-6.23-12.9-30.7-17.8-38.7-0.192-0.311-0.491-0.436-0.844-0.438zm477-15.4c-17.4,0.205-32.8,3.25-41.7,8.94l-2.62-2.66c-3.85,2.54-7.4,4.62-7.91,4.62-1.34,0.003-12.6,7.36-12.6,8.25-0.005,0.412,1.1,0.75,2.47,0.75h2.47l-1.66,3.5c-2.4,5.03-0.885,6.24,5.28,4.12,2.61-0.89,4.97-1.41,5.22-1.16s-1.18,2.61-3.12,5.25c-9.59,12.9-11,15.4-9.94,16.5,0.811,0.811,1.78,0.392,3.56-1.53,1.34-1.45,3-2.62,3.69-2.62,1.22,0,1.16,0.669-0.625,7.66,2.38,5.87,21.1,23.3,10.9,8.81-0.105-0.788-0.352-1.83,1.75-1.34,1.12,0.26,22.7,17,23.8,16.3,1.79-1.12-21.9-17.6-22.5-23.3-1.38-6.02,1.99-11,6.25-14.9,4.78-4.4,12.1-8.48,13.7-7.59-2.12,44.3,36.7,43.2,44.4,43.1,16.2-0.247,37.5-18.8,38.4-30.2,9.41,1.58,13,10.7,12,11.9-1.01,1.21-6.53,5.63-5.53,8.03,1.48,3.58,8.63-0.114,14-2.5,4.15-1.85,6.15-2.51,12,0,8.12,3.48,10.6,2.4,6-2.59-2.76-2.97-2.54-7.38-14.9-20.9-4.61-5.06-7.72-6.71-13.6-15.8,12.1,1.54,28.1,23.9,27.9,22.1-1.11-9.05-10.3-18.1-21.8-24.8-16-11-46-17-71-17zm-273-14-0.0312,0.0937c-0.0135,0.001-0.0175-0.001-0.0312,0v0.0312c-1.26,0.117-3.8,0.316-5.75,0.688-6.96,2.51-15.5,0.158-22.2,3.06-4.93,2.31-13.4,4.91-18,5.53-5.2,0.704-13.8,5.09-25.5,13-7.72,5.22-21.4,14.2-19.8,16.1,0.728,0.877,0.668,2.34-0.156,4.84-0.65,1.97-0.904,4.25-0.594,5.06,1.04,2.72-0.591,7.31-4,11.3-1.86,2.17-3.41,4.43-3.41,5.03,0,1.33,4.98,1.44,8.28,0.188,2.64-1,14.1,1.1,18.9,5,4.37,3.54,7.08-0.76,2.88-4.56-1.09-0.984-1.7-2.23-1.38-2.75,0.324-0.524,1.99,0.396,3.72,2.03,3.72,3.53,13.8,8.04,14.5,6.88,0.614-0.994-6.36-7.43-8.84-10.2-3.96-4.37-5.13-9.58-3.06-13.4,1.74-3.25,7.94-6.22,11.4-5.47,3.35,0.726,4.57,1.94,4.59,4.59,6.25,22.5,33.9,31.2,52.8,26.6,17.9-4.37,24.6-29.4,27.2-41.7,2.6,0,11.1,5.58,17.1,11.2,6.84,6.45,9.81,12.1,5.84,11-1.47-0.384-3.17,0.772-6.47,4.34-2.47,2.68-4.49,5.2-4.5,5.59-0.006,0.394-1.61,2.29-3.53,4.22-4.61,4.61-20.6,9.06-15.9,9.06,2.67,0,19.7-2.98,20.1-4.38,0.684-2.61,8.66-5.92,16.1-6.69,5.58-0.575,6.22-0.847,5.69-2.53-0.417-1.31-0.115-1.91,0.969-1.91,2.05,0,1.97-0.83-0.438-4.78-2.69-4.42-2.58-4.72,1.75-4.72,3.17,0,3.81-0.378,4.09-2.34,0.182-1.28-0.319-3.08-1.09-4-0.778-0.917-2.4-3.64-3.62-6.06-3.3-6.52-13.1-17-15.9-17.1-1.87-0.0263-13.2-9.14-12.7-7.53,0.543,1.71,5.96,7.64,8,9.69-1.16-0.663-3.65-1.34-6.19-1.66-3.08-0.384-7.19-1.61-9.16-2.72s-7.87-3.29-13.1-4.84c-9.17-2.72-9.99-2.81-21.1-1.94-12.6,0.994-22.3,2.45-31.4,4.66-3.24,0.792-6.25,1.06-6.72,0.594,4.79-7.86,25.9-8.22,33.5-12,2.29-1.19,3.41-1.23,5.69-0.281,2.83,1.17,4.94,0.688,4.94-1.09,0-0.518-0.967-0.938-2.16-0.938-2.09,0-2.08-0.0508-0.312-2,1.25-1.37-0.66-2.25-1-2.62,0.565-0.052,0.908-0.0937,0.5-0.0937-0.304,0-0.446,0.0269-0.531,0.0625-0.0128-0.0206-0.0324-0.0455-0.0312-0.0625zm273-56,0,0.0312c2.74,0,0.566,1.47-4.16,2.81-4.83,1.37-8.21,1.54-6.84,0.344,1.2-1.05,8.56-3.19,11-3.19zm62.9-6,0.0625,0.0312c-0.743,0.0362-1.38,0.187-1.91,0.469-1.16,0.622-5.4,1.06-9.41,0.969-6.16-1.34-12.7,3.27-18.3,1.28-1.37-0.624-3.7-0.901-5.22-0.625s-6.84,0.674-11.8,0.906c-4.95,0.232-10.5,0.731-12.2,1.09-2.67,0.547-3.25,0.352-3.25-1.06-3.52-4.97-9.58,2.39-14.6,2.5-2.62,0-12.4,4.73-12.4,6,0,0.549-0.45,1-1,1-1.55,0-1.19-3.1,0.594-5.06,1.96-2.16,1.07-3.94-2-3.94-5.93,3.37-13.2,9.06-16.1,15.2-1.34,2.89-3,6.04-3.69,7-1.74,2.45-0.009,4.88,4.84,6.78,5.49,2.24,14.2,8.63,19.3,4.62,2.47-2.12,16.7-5.87,25.6-6.69,4.63-4.32,40.9-0.147,42.6-2.16,0.437-0.707,2.99-0.827,7.53-0.344,7.7,0.82,9.19,1.39,7.22,2.69-1.09,0.721-1,1.18,0.562,2.38,13.6-1.25,31.9,14.1,50.8,17,19.6,2.88,2.87-6.2-1.31-9.47-2.34-1.92-2.36-1.94-0.375-3.5,1.96-1.55,13.9-1.62,10.5-4.59-1.92-1.66-8.09-5.28-13.8-8.03-5.64-2.75-19.7-12.3-21.5-13.8-7.45-6.38-15.2-10.5-19.9-10.7-0.269-0.0136-0.534-0.0121-0.781,0zm-366-7.38c1.79-0.0644,1.57,1.62-0.312,2.34-6.34,1.99-20.7,4.25-3.94-0.938,1.73-0.534,3.56-1.38,4.25-1.41zm3.38-5.03c-8.51,1.86-29.1,10-31.5,11.8-0.593,0.427-3.79,1.84-7.09,3.12-5.74,2.25-23.5,8.65-23.5,10.2,0,1.71-3.36,3.88-6.03,3.88-1.82,0-3.27,0.742-3.91,1.94-0.559,1.04-3.83,3.3-7.28,5-7.16,3.53-6.32,3.99,1.91,1.09,7.34-2.58,9.42-1.54,5.34,2.62-1.64,1.68-4.57,4.12-6.5,5.44-3.74,2.54-4.77,6.5-2,7.56,0.833,0.32,4.77-0.998,8.75-2.94,3.98-1.93,8.34-3.83,9.72-4.22,8.04,0.002,15.4-4.22,22.7-5.56,13.6-4.56,27.1-9.59,40.7-14.2l10.6,1.16c10.5,4.84,33.6,3.15,43.9,6.22,1.47,0.471,3.86,1.08,5.34,1.38,4.42,2.07,1.47,5.98,5.94,6.09,8.79,0.697,23.8,13.9,15.5,14.4-1.69,0-1.42,0.415,1.38,2,4.11,2.34,8.74,1.9,11-1,1.45-1.89,3.97-1.55,3.66,0.5,2.21,1.25,14.1,2.33,11-0.03-1.67-1.23-1.74-1.75-0.625-4.44,1.06-2.73,3.61-3.97,4.91-6.06,1.86-3.06,1.87-3.12-0.625-7.59-1.4-2.53-14.1-14.1-14.3-10.4,0,1.68-1.75,1.14-4.5-1.41-3.32-3.07-14.7-9.76-20.3-12-7.79-1.22-15.6-3.2-23.2-4.16-3.02-0.374-7.46-1.57-9.88-2.66-3.46-1.56-7.46-2.08-19.2-2.53-8.18-0.314-14.9-0.92-14.9-1.31,3.85-1.95,15.1-2.63,6.63-4.85-4.6-1.2-10,0.127-13.6,0.92zm-179-68c0.364-0.0476,0.754,0.354,1.09,1.41,1.29,3.94,1.37,4.44,0.812,5.91-0.8,4-1.9,3-2.6-1-0.517-2.76,0.105-5.11,0.906-5.22zm26.6-29-1.31,3.09c-0.741,1.7-1.68,4.52-2.06,6.25-0.532,2.43-0.351,3.16,0.781,3.16,1.96,0,2.72-2.16,2.66-7.81zm-4-15.3c-0.505,0.117-0.896,0.648-0.906,1.25-0.012,0.688-0.942,3.28-2.09,5.75-1.69,3.61-2.18,6.96-2.5,17-0.218,6.87-0.874,14.4-1.44,16.8-1.18,5.03-0.568,7.86,1.84,8.5,0.937,0.247,2.04,0.5,2.41,0.562,1.76,0.31,2.2-8.85,1.25-25.5-0.523-9.17,0.289-18,2.09-22.6,0.397-1.02,0.21-1.75-0.438-1.75-0.0761,0-0.147-0.0167-0.219,0zm10.7-27.5c-0.848-0.206-4.5,7.68-5.31,11.7-0.617,3.03,0.34,3.42,3.16,1.38,1.24-0.908,1.67-2.07,1.28-3.56-0.319-1.22-0.12-3.52,0.438-5.12s0.798-3.49,0.562-4.19zm627-8.72c-2.14,0.378-5.58,13-2.62,21.6,2.14,36.7,8.32-2.87,3.09-21.6-0.167-0.0316-0.326-0.0252-0.469,0zm-662-3.72,0.0625,0.406c-0.508,0.113-1.09,0.387-1.66,0.875-0.928,0.796-2.48,1.72-3.44,2.06-2.98,1.06-2.02,2.95,1.25,2.47,3.46-0.508,3.46-0.531,1.66,3.03-1.62,3.2-3.06,13.2-1.91,13.2,1.52,20,3.02,42.8,0.938,64.1-0.644,5.93-0.537,6.7,1.09,7.12,2.66,0.69,7.15,13.7,8.75,25.5,5.14,37,17.6,71.5,21.4,103,0.8,12.3-1.8,13.3-6.78,9.38-42.1-12.6,9.86,11.2,7.49,50.5-2.09,3.06-2.76,8.38-1.59,12.7,2.35,8.73,1.57,20-3.16,45.4-1.04,5.58-1.91,10.6-1.91,11.2,0,1.96,2.03,1.16,2.97-1.16,1.58-3.88,2.93-7.13,4.53-11,1.72,11.8,2.01,23.7,2.44,33.5,0.954,22.1,2.74,37.9,4.66,41,0.949,1.54,1.31,26.4,0.406,27.9-11.4-10.3-25.7-36.4-26.6-52.4-1.23-4.95,0.0374-11.1-3-14.8-0.0471-0.0471-0.0805-0.0403-0.125-0.0312-0.312,0.0631-0.562,1.42-0.562,3.34,0.864,5.48,0.267,9.82,0.438,15.4,0.175,5.78,2.96,19.7,4.97,24.8,3.71,7.49,8.97,14.7,12.3,21.2,3.12,6.05,6.82,13.5,9.5,15,4.05,2.23,6.48,8.35,8.5,20,5.82,63.4,11.5,111,40.6,186,2.73,36.4,10,72.3,11.4,103,0.177,3.81,5.77,60.2,10.9,47.5-0.27-46.9-16.1-101-16.2-142,27.7,30.1,55.6,69.1,75.2,93.2,56.7,69.8,94.1,89.5,119,89.2,33.9-0.334,48.5-2.28,63.8-2.69,91.4,14,118-14.6,141-44.3,29.4-38.6,49.7-77.1,74.4-114,2.18-3.83,3.76,0.739,1.62,4.72-17,60.6-7.54,114-16.8,173-0.445,2.75-0.575,8.15-0.281,12,9.7-17.4,7.89-68.8,9.19-84.5,4.27-32.8,3.28-67.5,13.5-100,5.11-20.6,12.5-40.4,18.4-54,17.9-49.3,25.7-102,33.7-148l1.5-8.19,9.47-9.44c5.21-5.19,9.49-10.3,9.5-11.3,0.007-1.02,1.08-19.2,2.38-23.4,1.83-5.82,10.5-10.8,10.9-22.2,0.218-24.1,7.94-40.7,13.4-64.8,4.67-20.9,14.2-65.7,23.2-84.2,3.8-20.5-33.6,26.9-37.5,28.2-10.5-26.5,27.5-41.5,42.9-45-27.2-4.81-46.5,23.4-54,25.8-5.09-8.01,9.42-50.3,9.97-52,0.818-18.9,17.8-131,6.9-158-0.117,0-0.224-0.0299-0.312,0-1.83,38.9-2.93,85.5-9.59,130-0.72-1.96-6.23-17.2-6.35-15.1-2.63,44.4-15.6,93.4-18.4,135-0.189,3.3,4.5,20.8,4.09,26.3-1.2,14.1-3.52,42.8-5.28,66.8-1.35,9.51-2.41,17.4-2.41,18.8,0,3.57-0.912,25.8-2.03,32.3s-2.28,13.8-2.59,16.3c-0.308,2.48-1.87,11.2-3.47,19.3-4.16,59-19.6,130-46.6,171-15.5,27-33.4,55.9-44.6,73.5-70.2,110-93.6,111-179,98.5-22.5,0.447-50.7,8.31-71.7,1.28-28.8-11.1-44.2-19-86-61.1-28.8-38.8-69.5-82.8-93-124-33.3-60.5-35.2-128-40.3-190-0.478-6.32-1.53-16-2.34-21.5-0.809-5.5-1.93-14-2.5-19-0.203-1.77-0.622-5.17-0.938-7.84-2.09-27.6-5.01-47.5-3.53-72.6-0.123-6.78,2.63-13.6,3.5-19.4,10.9-27.8-2.18-62.8-5.09-93.2-0.524-6.05-1.5-16.4-2.12-23-6.54,6.48-2.34,17.8-5.12,17-1.03-35-16-79.5-16.8-123-8.07-20.3-6.41,4.11-5.41,13.1-0.179,1.86-0.0531,4.34-1.84,2.56-0.759-0.76-1.55-6.13-2-13.9-0.699-12.2-1.7-21.8-3.28-30.9-3.6-15-2.5-15-2.4-27,0.473-9.19-0.752-22.4,4.91-29.2,1.95-2.17,0.703-4.94-2.22-4.94-2.9,0-4.2-3.97-2.66-8.06,0.464-1.92-1.4-9.15-1.91-9.53zm0.0312-20.5-1,1c-3.82,3.41-5.56,5.23-5.94,7-1.31,16.1,4.64-3.14-7.06,9.47,6.64-2.28,7.24,1.83,11.6,2.69,1.37,0.027,1.46-0.854,0.688-6.66-0.87-6.5-2.5-5.13,1.72-13.4zm12.1-11c-2.27,0.615-7.99,2.5-11,8.38-0.115,0.225-0.204,0.38-0.312,0.594,4.47-3.99,9.5-7.89,11.3-8.97zm0.719-0.312c-0.0928,0-0.348,0.132-0.656,0.312,0.48-0.129,0.852-0.245,0.938-0.281-0.1,1-0.2,1-0.4,1zm638-41.1,0,0.0625c-0.467,0-0.358,2.26-0.0937,6.16-0.276,2.45,3.81,16.7,0.03,13.8-0.694-0.576-2.75-4.33-4.56-8.31-3.32-7.32,0.858,13.1-0.692,13.1,14.6,33.7,21.4,90.1,15.3-4.02-0.297-8.04-5.36-15.7-9.87-20.8-0.0331-0.004-0.063,0-0.0937,0zm-561-20.5c-0.65,0.006-1.91,0.626-4.34,1.88-2.54,1.3-3.97,2.71-3.97,3.94,0,1.06-0.45,2.19-1,2.53s-1.43,1.85-1,1.56l-0.4-1c0,1.5,1.6,1.01,3.5-1.09,1.05-1.16,3.14-2.75,4.66-3.53,1.59-0.824,2.75-2.26,2.75-3.41,0-1.22-0.0366-1.82-0.688-1.81zm339-35.5c1.88,0,4.24,0.973,5.94,2.47,3.28,2.88,2.4,3.06-3.38,0.719-5.56-2.26-6.32-3.19-2.56-3.19zm48.5-12.7,0,0.0312c-0.911,0.182-1.48,2.79-0.875,5.22,0.65,2.59,2.52,3.44,2.72,1.25,0.227-2.46-0.287-5.29-1.16-6.19-0.238-0.248-0.476-0.354-0.688-0.312zm-6-6.4c-0.426-0.00078-0.798,0.0712-1.06,0.0937v-0.0312c-0.15,0.0132-0.292,0.0736-0.438,0.219-0.425,0.425,0.879,7.78,1.91,10.7,0.973,2.75,3.24-2.54,2.84-7.41-0.256-3.08-1.97-3.56-3.25-3.56zm-245-4.69c0.347-0.0143,0.737,0.0426,1.09,0.188,0.798,0.319,0.571,0.577-0.594,0.625-1.05,0.0434-1.65-0.199-1.31-0.531,0.166-0.166,0.466-0.267,0.812-0.281zm9.12-1.12,0,0.0312c1.4-0.0664,3.36,0.134,5.66,0.594,3.76,0.752,4.07,3,0.625,4.56-7.48,7-5.45,3.18-14.7,2.84-1.48-0.0387-2.91-0.429-3.19-0.875,4.89-1.55,9.48-0.116,14.8-1.28,1.29-1.28-0.747-3.91-3.03-3.91-1.32,0-2.44-0.45-2.44-1,0-0.569,0.854-0.902,2.25-0.969zm-146-1.41c-0.294,0.182-1.52,1.33-3.38,3.22-2.7,2.77-6.61,7.72-8.69,11-10,17.6-26.6,30.4-35.9,47.5-1.62,3.03-4.43,8.24-6.25,11.6-1.82,3.34-3.89,7.84-4.59,10-3.78,14.9-12.5,24.9-16,39.3l0.0625,0.312c0,0.6,0.175,1.09,0.375,1.09,4.66-7.13,8.13-15.8,12.4-22.2,6.21-9.24,7.44-12.3,6.66-16.5-0.487-2.6-0.169-3.4,1.53-4.31,2.9-1.55,7.94-9.83,7.94-13,0-1.44,1.12-4.14,2.5-6s2.5-3.94,2.5-4.62c6.81-16.4,33.9-35.4,37.9-50.8,0.502-2.23,1.69-5.05,2.66-6.25,0.12-0.15,0.197-0.265,0.25-0.344zm0.0625-0.125c0.014,0.002-0.009,0.054-0.0312,0.0937,0.0146-0.007,0.0556-0.0633,0.0625-0.0625zm185-15.5c0.243-0.0228,0.499-0.009,0.781,0,1.88,0.0602,4.46,0.758,4.75,1.66,0.265,0.808-0.647,1.25-2.53,1.25-3,0-4.25-0.645-4.25-2.22,0-0.383,0.52-0.618,1.25-0.688zm57.1-1.34c-2.16,0.0884-2.24,1.11,1.12,2.22,3.38,1.11,4.95,3.03,2.5,3.03-2.52,0,0.002,2.43,3.62,3.5,2.17,0.638,4.27,0.998,4.69,0.781,1.32-0.696,0.802-3.04-0.812-3.66-0.86-0.33-1.3-1.01-1-1.5,0.811-1.31-1.36-2.69-6.06-3.84-1.7-0.414-3.08-0.572-4.06-0.531zm-65.1,0.406,0.0312,0c0.682-0.0234,1.26,0.0688,1.5,0.312,0.357,0.357,10.1,7.19,9.62,8.03-5.11-0.618-30.2-8.07-11.2-8.34zm114-0.812c1.16,0,1.84,0.45,1.5,1s-1.02,1-1.5,1c-0.485,0-1.16-0.45-1.5-1s0.335-1,1.5-1zm-269-10.6c-1.25-0.0523-2.82,0.264-5.25,0.938-2.7,0.749-3.75,1.6-3.75,3,0,1.29,0.683,1.97,2,1.97,2.5,0,2.59,1.78,0.0937,2.78-1.03,0.395-3.06,2.13-4.5,3.84-1.44,1.72-3.96,3.72-5.62,4.41-1.66,0.688-3,1.84-3,2.59l-0.0312-0.0312c0,1.9,2,1.79,5-0.312,1.49-1.05,3.96-1.59,6.47-1.44,3.74,0.167,4.67,0.934,1.81-2.12-1.22-1.3,0.0312-1.88,0.0312-2.19s0.462-2.31,3.81-3.56c6.92-2.59,9.45-6.09,6.19-8.56-1.08-0.82-2-1.23-3.25-1.28zm381-0.0312c-0.0342,0.0688-0.215,0.0213-0.281,0.0625-2.13,1.32-1.01,4.48,2.66,7.5,2.98,2.5,4.83,4.23,5.47,0.0625,0.571-3.52-2.35-3.73-4.31-5.59-1.31-1.26-2.79-2.09-3.53-2.03zm-216-6.22c1.93,0.0591,4.68,0.88,7.25,2.19,5.27,2.67,13.8,5.13,12.8,6.72-1.11,1.8-3.97,0.976-10.8-3.09-4.17-2.5-6.75,1.29-6.75,0.219-1.36-3.69-3.28-3.71-6.5-5.66l3.19-0.312c0.284,0.002,0.591-0.0488,0.81-0.067zm262-6.23c-0.491,1.55-0.25,4.13,8.78,12.6,10.5,9.77,25.5,24.2,24.5,25.1-0.213,0.2-5.33-4.09-11.4-9.53-6.05-5.44-13.4-9.91-13.9-9.91-2.1,0,11.9,14.2,26.8,29.5,27.9,17,48.4,55.2,65.3,71.4,12.1,6.32,6.71,0.704-8.31-19.4-20.9-20.8-40-47.4-53.4-64.4-18.3-15.9-23.9-26.6-38.4-35.4zm-272-17.5,0.0625,0.0938c-0.665-0.076-2.34,2.81-1.22,4.16,1.51,1.81-0.33,4.44-3.09,4.44-1,0-2.08,0.446-2.41,0.969-0.733,1.18,2.64,3.03,5.5,3.03,1.18,0,3.48,1.35,5.12,3l3,3c-3.94,0.101-7.91,0.0997-11.8,0.506-1.1,0.119-2.9,0.25-4,0.312-3.11,0.417-4.97,1.88-3.19,3.87,2.4,2.65,2.11,3.4-1.06,3.03-2.19-0.256-2.75,0.0914-2.75,1.69,0,1.38,0.772,2.1,2.5,2.31,3.91,0.494,18.2,7.42,17.2,8.38-0.468,0.468-3.72-0.0199-7.25-1.09-13.1,2.34-18.9,14.3-34.9,17.5-4.68,0.915-8.84,2.3-9.28,3.06-0.979,1.7-4.68,1.76-9.94,0.188-3.88-1.73-7.08,1.21-10.4,0.219-15.7-4.82-19.1-5.61-27.7-6.47-8.06-0.803-6.41,0.76,3.56,3.41,9.59,2.54,23.8,7.95,23.8,9.06,0,2.57-9.82,1.58-14.1-1.41-1.81-1.27-4.77-1.62-13.5-1.62-9.73,0-11.2,0.225-11.8,1.75-0.34,0.962-0.868,2.29-1.19,2.97-0.421,0.898,0.844,1.16,4.75,1,5.07-0.214,5.31-0.0987,5.31,2.28-0.692,4.78,6.41,2.36,9.75,2.28,5.36-0.123,9.75,0.0379,9.75,0.375s-0.743,1.18-1.66,1.84c-2.71,1.98-0.562,3.52,4.97,3.53,5.58,0.0164,8.36,1.1,7.28,2.84-1.13,1.83,3.18,2.24,20.4,1.94,15.6-0.28,17-0.168,24.8,2.41,4.56,1.49,9.41,3.6,10.8,4.69,2.97,2.33,5.72,1.74,4.84-1.03-0.0121-2.55,14.4,0.283,16.6,1.96,3.52,2.75,9.95-0.233,13.8,0.5,2.98,0.553,13.9,8.76,14.1,6.07-2.03-3.67-4.96-5.91-7-9.75,0-2.48,11,2.36,25,11.1,3.94,2.45,9.99,4.04,18.5,4.78,17.4,1.52,25.6,2.73,30.7,4.59,3.83,1.39,6.69,1.82,8.78,1.38,2.9-0.638,3.07-0.896,2.47-4.09-0.602-3.21-0.457-3.45,2.47-4.03,1.71-0.342,3.09-1.22,3.09-1.94,0-0.719,0.9-1.59,2-1.94,2.89-0.916,2.57-5.07-0.625-8.03-2.6-2.41-2.63-2.47-0.438-2.47,2.4,0,2.4-1.86,0-3.12-18.9-2.28-35.3-29.8-47.6-30-5.7,0.23-9.41-1.5-9.41-4.41,0-0.676-1.13-1.99-2.53-2.91-1.65-1.08-2.38-2.28-2.03-3.38,0.403-1.27-0.874-2.43-5.19-4.69-3.58-1.87-5.87-3.75-6.09-5-0.194-1.1-1-2.71-1.78-3.59-0.808-0.913-1.13-2.36-0.75-3.38,0.55-1.43,1.46-1.65,4.88-1.19,6.9,0.946,31.1,8.2,33.4,10,1.47,1.15,22.7,9.25,27.7,10.5,1.66,0.434,4.14,1.4,5.5,2.16,1.36,0.757,4.27,1.47,6.47,1.59,4.64-0.672,21.7,5.46,23,9.38,1.4,2.86,11.9,7.34,10.1,9.66-4.66,0.387-14.7-5.31-18.6-3.09,3.17,6.73,21.8,8.47,23.8,10.3,3.4,3.17,4.67,7.8,1.34,4.88-0.962-0.849-3.32-1.88-5.25-2.28-9.23-3.38-18.3-6.01-26.8-10.8-5.12-2.89-5.4-3.23-3.19-3.75l2.41-0.562-2.44-1.72c-1.34-0.946-3.13-1.72-3.97-1.72-0.842,0-4.68-1.16-8.53-2.59-9.93-3.7-15.5-5.41-17.8-5.41-3.51,0-0.182,2.5,5.31,4,5.53,1.51,6.95,2.68,4.5,3.62-2.98,1.14-1.71,3.38,1.91,3.38,4.01,0,8.63,1.56,10.1,3.38,2.38,2.55,11.5,6.17,8.78,8.22-1.5,1.11-1.55,1.35-0.281,1.75,17.8,5.65,25.1,9.64,35.4,19.2,3.8,3.54,9.2,7.5,12,8.81,1.84,0.699,18.1,9.63,18.7,4.03-2.05-9.73-4.95-14.7-4.91-23.4-0.004-3.72,7.06-12.2,7.53-13.9,1.32-4.8,5.5-23.1,0.969-21.8-1.86,8.4,0.305,25.5-9.53,26.2-3.63,0-5.38-1.48-7.38-6.22l-1-1-2,3c-1.58,2.36-2.9,3.48-3.97,2.66l-1-1c-0.136-0.143-0.265-0.266-0.406-0.438-3.08-3.72-14.4-11.4-19.7-13.4-3.1-1.15-6.12-2.67-6.69-3.41s-3.26-2.65-6-4.22c-13.1-11.8-21.1-10.3-35.6-10.9-5.92-3.96-18.4-11.6-22.5-13.8-1.57-0.884-4.13-2.09-5.72-2.66-1.59-0.569-2.62-1.28-2.31-1.59,0.572-0.572,6.76,1.14,9.94,2.75,2.03,0.869,6.71,1.57,6.06-1.03-0.273-1.04-1.47-2.12-2.66-2.41-7.79-1.87-14.7-4.18-18.8-6.28-3.71-1.88-4.81-2.11-4.81-1,0,0.789,1.58,2.37,3.5,3.56s3.5,2.45,3.5,2.75-1.8,0.263-4.03-0.0938c-4.98-0.797-6.33-0.16-4.94,2.44,0.709,1.32,2.15,1.94,4.44,1.94,1.89,0,3.91,0.722,4.69,1.66,1.23,1.48,1.06,1.62-1.62,1.12-1.65-0.294-4.35-1.04-6-1.62-16.7-4.64-41.7-7.78-49.4-14.5-0.755-0.912-2.1-1.65-3-1.66-0.895-0.003-3.31-1.58-5.41-3.5-2.09-1.92-5.22-2.74-5.22-3.5,0-0.386-0.0966-0.576-0.25-0.594zm113-12.2c2.07,1.27,2.55,6.19,4.75,7.31,0.998,0.507,2.03,0.254,3.03-0.312-0.363-0.237-0.73-0.459-1.16-0.75-2.43-1.67-2.9-5.94-6.62-6.25zm-22.9-1.12c0,0.236-0.448,0.0142-0.656,0.0312-1,0.0821-1.66,0.391-1.66,0.969,0,0.569,1.58,1.93,3.5,3.06,2,1.18,3.5,2.91,3.5,3.97,18.9-0.272,6.16-7.78-4.69-8.03zm27.8-5.06c-0.186,0.0141-0.338,0.0625-0.5,0.156l-0.0625,0.0312c3.49,2.28,7.89,15.1,10.1,12.7,1.87-2.07,1.86-2.11-0.594-4.09-0.926-0.75-6.15-8.99-8.94-8.78zm87.2-15.6c-0.101-0.0057-0.18,0.0144-0.25,0.0312-0.934,0.224,0.847,2.48,5.34,6.78,1.79,1.71,3.25,3.9,3.25,4.88,6.34,11.5,19.3,13.6,29.1,20.2,3.34,2.34,4.46,2.1,2.72-0.562-7-9.68-20.8-14-26.9-21.5-2.52-3.17-6.5-6.78-8.88-8.03-2.2-1.16-3.66-1.77-4.38-1.81zm-48.3-22.4c-1.79,0-1.69,0.968,0.312,3.19,1.61,1.78,4.34,2.51,4.34,1.16,0-1.26-3.31-4.34-4.66-4.34zm-30.5-0.938-0.0312,0.0312c-0.143,0.0142-0.268,0.0806-0.344,0.156-0.972,0.972,0.39,2.58,4.81,5.78,3.97,2.88,6.75,3.76,6.75,2.12,0-1.92-9.07-8.31-11.2-8.09zm-81.5-11.7c-1.3,0.0012-2.58,0.013-3.88,0.0312-5.14,0.0734-10.1,0.277-13.8,0.594-7.15,0.598-15.5,7.24-18.5,7.44-5.68,0.368-14.7,2.73-26,6.81-3.58,1.29-9.7,2.94-13.6,3.62-6.03,1.07-7.31,1.64-8.72,4.03-1.73,4.72-2.99,8.65-7.28,11-2.44,1.3-4.44,2.7-4.44,3.16-4.83,10.2-28.8,7.15-27.5,11.9,0.425,1.34-0.26,2.08-2.72,3-1.8,0.671-4.42,1.84-5.84,2.59-1.42,0.752-6.14,2.08-10.5,2.97-5.57,1.14-9.8,2.77-14.2,5.53-3.47,2.16-7.38,3.94-8.69,3.94-2.58,0-3.99,1.4-3,3,0.876,1.42,2.09,1.27,6.31-0.844,5.64-2.82,10.2-3.45,12.2-1.66,8.33,0.952,14-4.12,23.5-8.44,3.72-1.69,21.1-7.98,31.5-11.4,3.19-1.04,4.62-2.08,4.84-3.56,0.258-1.7,2.31-2.73,11-5.56,5.88-1.92,13.1-4.4,16.2-5.5,3.02-1.1,6.93-2.01,8.69-2.03,4.76-0.0487,4.92-1.7,0.344-3.91-3.24-1.57-4.74-1.78-7.31-1-5.55,1.69-14.8,2.79-16.9,2-5.79-3.27,36.1-10.8,38.7-11.2,10.3-1.27,13.5-8.31,13.5-10.3,0-0.778,0.728-1.67,1.59-2,2.44-0.935,9.35-0.731,11.3,0.344,0.99,0.53,8.94,1.04,17.7,1.12,10.3,0.114,17.6,0.708,20.7,1.62,5.63,1.66,34.4,2.51,35.3,1.06,0.318-0.515,0.0512-2.19-0.594-3.75-1.49-3.61-3.57-4.03-19.8-3.91-7.02,0.0552-20-0.192-28.8-0.562-3.5-0.147-7.37-0.222-11.3-0.219zm62.8-4.38c-1.86,0-1.13,2.33,1.69,5.34,1.84,1.97,2.34,3.06,1.5,3.38-1.94,0.701-1.46,3.08,0.75,3.78,1.92,0.533,3.83-0.0909,5.5,0.562,6.1,2.45,5.76,0.73-1.22-6.06-3.95-3.85-7.64-7-8.22-7z"/>
  </g>
</svg>
